<svg xmlns="http://www.w3.org/2000/svg" height="200" viewBox="0 -960 960 960" width="200" fill="#8DCAFF"><path d="M354.201-383.923q-21.893 0-37.701-16.146-15.807-16.146-15.807-38.231t16.145-37.7q16.146-15.615 38.231-15.615t37.7 16.003q15.616 16.003 15.616 38.181 0 21.892-16.004 37.7-16.003 15.808-38.18 15.808Zm251.538 0q-21.893 0-37.701-16.146-15.807-16.146-15.807-38.231t16.145-37.7q16.146-15.615 38.231-15.615t37.7 16.003q15.616 16.003 15.616 38.181 0 21.892-16.004 37.7-16.003 15.808-38.18 15.808ZM480.143-142.385q140.924 0 239.198-98.469 98.274-98.47 98.274-239.165 0-25.199-3.808-50.207-3.807-25.009-10.02-45.851-20.557 5-43.726 7.193-23.169 2.192-48.028 2.192-96.071 0-181.667-40.308-85.597-40.307-146.443-113.154-32.952 80.162-95.973 141.081-63.021 60.919-145.565 92.928v6.559q0 140.45 98.417 238.825 98.418 98.376 239.341 98.376Zm-.076 58.383q-81.476 0-154.098-31.15-72.621-31.15-126.342-84.55-53.72-53.4-84.673-126.078-30.953-72.677-30.953-154.153 0-81.476 31.151-154.098 31.15-72.621 84.55-126.342 53.4-53.72 126.078-84.673 72.677-30.953 154.153-30.953 81.476 0 154.098 31.151 72.621 31.15 126.342 84.55 53.72 53.4 84.673 126.078 30.953 72.677 30.953 154.153 0 81.476-31.151 154.098-31.15 72.621-84.55 126.342-53.4 53.72-126.078 84.673-72.677 30.953-154.153 30.953Zm-88.529-721.074q81.153 106.385 161.538 143.192 80.385 36.808 159.078 36.808 21 0 36.24-1.184 15.241-1.185 31.145-6.97-44.308-84.539-122.308-134.462-78-49.923-177.231-49.923-27.939 0-50.162 3.5t-38.3 9.039ZM155.923-561.537q42.77-15.308 104.809-73.962 62.039-58.654 80.884-149.27-83 35.076-126.577 94.346-43.578 59.27-59.116 128.886Zm235.615-243.539Zm-49.922 20.307Z"/></svg>
